<?xml version='1.0' encoding='utf-8'?>
<!DOCTYPE svg PUBLIC '-//W3C//DTD SVG 1.1//EN' 'http://www.w3.org/Graphics/SVG/1.1/DTD/svg11.dtd'>
<!-- Generator: Adobe Illustrator 14.0.0, SVG Export Plug-In . SVG Version: 6.00 Build 43363)  -->
<svg xmlns="http://www.w3.org/2000/svg" width="2.42083in" xml:space="preserve" xmlns:xml="http://www.w3.org/XML/1998/namespace" x="0px" version="1.1" y="0px" height="2.89307in" viewBox="0 0 174.3 208.301" id="Layer_1" enable-background="new 0 0 174.3 208.301">
 <sodipodi:namedview xmlns:sodipodi="http://sodipodi.sourceforge.net/DTD/sodipodi-0.dtd" showgrid="false" objecttolerance="10.0" pagecolor="#ffffff" bordercolor="#666666" id="base" borderopacity="1.0" guidetolerance="10.0" gridtolerance="10.0"/>
 <defs xmlns="http://www.w3.org/2000/svg">
  <inkscape:perspective xmlns:inkscape="http://www.inkscape.org/namespaces/inkscape" id="perspective43"/>
 </defs>
 <rect xmlns="http://www.w3.org/2000/svg" width="110" x="32.15" y="32.15" fill="none" height="143" stroke="#000000" stroke-linejoin="round" id="rect2707" stroke-linecap="round" stroke-width="2.3"/>
 <line xmlns="http://www.w3.org/2000/svg" fill="none" stroke="#000000" stroke-linejoin="round" id="line2713_5_" stroke-linecap="round" y1="104.15" stroke-width="2.3" x1="114.412" y2="104.15" x2="129.914"/>
 <line xmlns="http://www.w3.org/2000/svg" fill="none" stroke="#000000" stroke-linejoin="round" id="line2713_6_" stroke-linecap="round" y1="104.65" stroke-width="2.3" x1="129.914" y2="152.236" x2="129.914"/>
 <path xmlns="http://www.w3.org/2000/svg" fill="none" stroke="#000000" stroke-linejoin="round" id="path2960" stroke-linecap="round" stroke-width="2.0044" d="M67.421,130.699l0.242-53.651l46.749,27.034L67.421,130.699z"/>
 <g xmlns="http://www.w3.org/2000/svg">
  <path xmlns="http://www.w3.org/2000/svg" stroke="#000000" stroke-width="0.3" d="M36.631,28.371c0.182,0,0.351,0.099,0.351,0.351s-0.168,0.35-0.351,0.35h-3.109v-5.099c0-0.224,0.098-0.35,0.35-0.35s0.35,0.126,0.35,0.35v4.397L36.631,28.371L36.631,28.371z"/>
  <path xmlns="http://www.w3.org/2000/svg" stroke="#000000" stroke-width="0.3" d="M41.146,23.623h0.875v5.099c0,0.224-0.098,0.35-0.351,0.35c-0.252,0-0.35-0.126-0.35-0.35V24.59h-0.014l-0.666,0.986v0.112c0,0.217-0.084,0.42-0.35,0.42c-0.252,0-0.35-0.203-0.35-0.42v-0.112l-0.666-0.986H39.26v4.132c0,0.224-0.098,0.35-0.35,0.35s-0.35-0.126-0.35-0.35v-5.099h0.875l0.854,1.231L41.146,23.623z"/>
  <path xmlns="http://www.w3.org/2000/svg" stroke="#000000" stroke-width="0.3" d="M48.992,24.322c-0.182,0-0.35-0.098-0.35-0.35s0.168-0.35,0.35-0.35h2.409c0.399,0,0.701,0.301,0.701,0.699v1.346c0,0.279-0.056,0.482-0.273,0.679c0.217,0.196,0.273,0.398,0.273,0.68v1.345c0,0.399-0.301,0.7-0.701,0.7h-2.409c-0.182,0-0.35-0.098-0.35-0.35s0.168-0.351,0.35-0.351h2.409v-1.162c0-0.394-0.154-0.513-0.35-0.513h-1.373c-0.182,0-0.35-0.098-0.35-0.35s0.168-0.351,0.35-0.351h1.373c0.196,0,0.35-0.118,0.35-0.511v-1.163H48.992z"/>
  <path xmlns="http://www.w3.org/2000/svg" stroke="#000000" stroke-width="0.3" d="M56.091,23.623c0.238,0,0.35,0.168,0.35,0.35v2.023c0.217,0,0.385,0.077,0.511,0.196s0.189,0.294,0.189,0.511v1.667c0,0.428-0.266,0.7-0.701,0.7h-2.059c-0.434,0-0.7-0.272-0.7-0.7v-1.667c0-0.217,0.063-0.392,0.189-0.511s0.294-0.196,0.511-0.196v-2.023c0-0.182,0.112-0.35,0.35-0.35H56.091z M56.441,28.371v-1.674h-2.059v1.674H56.441z M55.741,25.996v-1.674h-0.658v1.674H55.741z"/>
  <path xmlns="http://www.w3.org/2000/svg" stroke="#000000" stroke-width="0.3" d="M59.422,26.592h2.339c0.35,0,0.42,0.146,0.42,0.469v1.569c0,0.329-0.14,0.44-0.456,0.44h-2.549c-0.329,0-0.455-0.119-0.455-0.44v-4.657c0-0.161,0.056-0.35,0.301-0.35h0.42c0.182,0,0.329,0.168,0.329,0.35c0,0.21-0.147,0.35-0.35,0.35L59.422,26.592L59.422,26.592z M59.422,27.293v1.078h2.059v-1.078H59.422z"/>
  <path xmlns="http://www.w3.org/2000/svg" stroke="#000000" stroke-width="0.3" d="M66.528,23.979c0-0.224,0.098-0.35,0.35-0.35s0.35,0.126,0.35,0.35v5.099h-0.924l-1.828-4.201v-0.008h-0.014v3.853c0,0.224-0.098,0.35-0.35,0.35s-0.35-0.126-0.35-0.35v-5.099h0.924l1.828,4.251h-0.007h0.014L66.528,23.979z"/>
  <path xmlns="http://www.w3.org/2000/svg" stroke="#000000" stroke-width="0.3" d="M71.351,25.927c0.287,0,0.42,0.111,0.42,0.427s-0.133,0.427-0.42,0.427h-1.639c-0.288,0-0.42-0.111-0.42-0.427s0.133-0.427,0.42-0.427H71.351z"/>
  <path xmlns="http://www.w3.org/2000/svg" stroke="#000000" stroke-width="0.3" d="M76.601,28.371v-1.414c0-0.203,0.091-0.351,0.35-0.351c0.259,0,0.351,0.147,0.351,0.351v1.765c0,0.252-0.168,0.35-0.351,0.35h-2.759c-0.182,0-0.35-0.098-0.35-0.35s0.168-0.351,0.35-0.351h1.03v-4.048h-1.03c-0.182,0-0.35-0.098-0.35-0.35s0.168-0.35,0.35-0.35h1.73v4.749h0.679V28.371z"/>
 </g>
 <g xmlns="http://www.w3.org/2000/svg">
  <path xmlns="http://www.w3.org/2000/svg" stroke="#000000" stroke-width="0.3" d="M5.459,48.794c-0.156,0-0.3-0.084-0.3-0.301c0-0.216,0.144-0.3,0.3-0.3H6.64v1.183c0,0.582-0.39,0.94-0.959,0.94H4.649c-0.276,0-0.48-0.048-0.689-0.24c-0.24-0.216-0.282-0.438-0.282-0.737v-1.498c0-0.384,0.084-0.582,0.312-0.875l0.708-0.906c0.239-0.306,0.449-0.408,0.839-0.408H6.34c0.156,0,0.3,0.084,0.3,0.3c0,0.217-0.144,0.301-0.3,0.301H5.62c-0.329,0-0.306-0.007-0.503,0.246l-0.654,0.833c-0.186,0.233-0.186,0.485-0.186,0.779v1.175c0,0.33,0.072,0.433,0.414,0.433h0.953c0.216,0,0.396-0.048,0.396-0.312v-0.61L5.459,48.794L5.459,48.794z"/>
  <path xmlns="http://www.w3.org/2000/svg" stroke="#000000" stroke-width="0.3" d="M9.173,45.958c0.049-0.162,0.114-0.307,0.307-0.307c0.197,0,0.27,0.15,0.312,0.307l1.157,4.06c0.042,0.144-0.12,0.3-0.288,0.3c-0.186,0-0.281-0.156-0.323-0.3l-0.222-0.72H8.838l-0.229,0.72c-0.042,0.144-0.138,0.3-0.323,0.3c-0.168,0-0.33-0.156-0.288-0.3L9.173,45.958z M9.485,47.072H9.473l-0.467,1.625h0.941L9.485,47.072z"/>
  <path xmlns="http://www.w3.org/2000/svg" stroke="#000000" stroke-width="0.3" d="M14.099,49.718h0.881c0.156,0,0.3,0.084,0.3,0.3s-0.144,0.3-0.3,0.3h-2.362c-0.156,0-0.3-0.084-0.3-0.3s0.144-0.3,0.3-0.3H13.5v-3.467h-0.882c-0.156,0-0.3-0.084-0.3-0.301c0-0.216,0.144-0.3,0.3-0.3h2.362c0.156,0,0.3,0.084,0.3,0.3c0,0.217-0.144,0.301-0.3,0.301h-0.881V49.718z"/>
  <path xmlns="http://www.w3.org/2000/svg" stroke="#000000" stroke-width="0.3" d="M19.006,45.958c0-0.192,0.084-0.301,0.3-0.301c0.217,0,0.301,0.108,0.301,0.301v4.364h-0.792l-1.565-3.598v-0.006h-0.012v3.298c0,0.192-0.084,0.3-0.3,0.3s-0.3-0.107-0.3-0.3V45.65h0.791l1.565,3.641h-0.006H19L19.006,45.958z"/>
 </g>
 <g xmlns="http://www.w3.org/2000/svg">
  <path xmlns="http://www.w3.org/2000/svg" stroke="#000000" stroke-width="0.3" d="M156.458,48.794c-0.155,0-0.299-0.084-0.299-0.301c0-0.216,0.144-0.3,0.299-0.3h1.182v1.183c0,0.582-0.391,0.94-0.959,0.94h-1.031c-0.275,0-0.48-0.048-0.689-0.24c-0.239-0.216-0.281-0.438-0.281-0.737v-1.498c0-0.384,0.084-0.582,0.312-0.875l0.707-0.906c0.239-0.306,0.449-0.408,0.84-0.408h0.803c0.156,0,0.301,0.084,0.301,0.3c0,0.217-0.145,0.301-0.301,0.301h-0.719c-0.33,0-0.307-0.007-0.504,0.246l-0.654,0.832c-0.186,0.234-0.186,0.486-0.186,0.78v1.175c0,0.33,0.072,0.433,0.414,0.433h0.953c0.216,0,0.396-0.048,0.396-0.312v-0.61L156.458,48.794L156.458,48.794z"/>
  <path xmlns="http://www.w3.org/2000/svg" stroke="#000000" stroke-width="0.3" d="M160.173,45.958c0.049-0.162,0.113-0.307,0.307-0.307c0.197,0,0.27,0.15,0.312,0.307l1.156,4.06c0.043,0.144-0.119,0.3-0.287,0.3c-0.187,0-0.281-0.156-0.324-0.3l-0.221-0.72h-1.277l-0.229,0.72c-0.042,0.144-0.138,0.3-0.323,0.3c-0.168,0-0.33-0.156-0.287-0.3L160.173,45.958z M160.486,47.072h-0.013l-0.468,1.625h0.941L160.486,47.072z"/>
  <path xmlns="http://www.w3.org/2000/svg" stroke="#000000" stroke-width="0.3" d="M165.099,49.718h0.881c0.156,0,0.3,0.084,0.3,0.3s-0.144,0.3-0.3,0.3h-2.361c-0.156,0-0.301-0.084-0.301-0.3s0.145-0.3,0.301-0.3h0.881v-3.467h-0.881c-0.156,0-0.301-0.084-0.301-0.301c0-0.216,0.145-0.3,0.301-0.3h2.361c0.156,0,0.3,0.084,0.3,0.3c0,0.217-0.144,0.301-0.3,0.301h-0.881V49.718z"/>
  <path xmlns="http://www.w3.org/2000/svg" stroke="#000000" stroke-width="0.3" d="M170.005,45.958c0-0.192,0.084-0.301,0.301-0.301s0.301,0.108,0.301,0.301v4.364h-0.792l-1.565-3.598v-0.006h-0.012v3.298c0,0.192-0.084,0.3-0.3,0.3s-0.3-0.107-0.3-0.3V45.65h0.791l1.564,3.641h-0.006H170L170.005,45.958z"/>
 </g>
 <g xmlns="http://www.w3.org/2000/svg">
  <path xmlns="http://www.w3.org/2000/svg" stroke="#000000" stroke-width="0.3" d="M5.459,147.46c-0.156,0-0.3-0.084-0.3-0.301s0.144-0.301,0.3-0.301H6.64v1.183c0,0.582-0.39,0.94-0.959,0.94H4.649c-0.276,0-0.48-0.047-0.689-0.239c-0.24-0.216-0.282-0.438-0.282-0.736v-1.5c0-0.383,0.084-0.581,0.312-0.875l0.708-0.906c0.239-0.305,0.449-0.407,0.839-0.407H6.34c0.156,0,0.3,0.084,0.3,0.3c0,0.217-0.144,0.301-0.3,0.301H5.62c-0.329,0-0.306-0.007-0.503,0.245l-0.654,0.833c-0.186,0.234-0.186,0.486-0.186,0.78v1.175c0,0.33,0.072,0.433,0.414,0.433h0.953c0.216,0,0.396-0.047,0.396-0.312v-0.61L5.459,147.46L5.459,147.46z"/>
  <path xmlns="http://www.w3.org/2000/svg" stroke="#000000" stroke-width="0.3" d="M10.366,144.624c0-0.191,0.084-0.301,0.3-0.301c0.217,0,0.3,0.108,0.3,0.301v4.364h-0.791L8.61,145.39v-0.006H8.598v3.299c0,0.191-0.084,0.299-0.3,0.299c-0.216,0-0.3-0.106-0.3-0.299v-4.366h0.791l1.565,3.641h-0.006h0.012L10.366,144.624z"/>
  <path xmlns="http://www.w3.org/2000/svg" stroke="#000000" stroke-width="0.3" d="M12.905,144.918h-0.223c-0.197,0-0.365-0.071-0.365-0.301c0-0.216,0.162-0.3,0.348-0.3h1.002c0.467,0,0.701,0.192,0.905,0.601l0.527,1.056c0.12,0.246,0.18,0.42,0.18,0.695c0,0.239-0.065,0.442-0.174,0.659l-0.546,1.093c-0.209,0.426-0.479,0.562-0.947,0.562h-0.995c-0.156,0-0.3-0.084-0.3-0.299c0-0.217,0.144-0.301,0.3-0.301h0.288V144.918z M13.505,148.383h0.113c0.252,0,0.312-0.029,0.42-0.252l0.528-1.066c0.065-0.139,0.113-0.24,0.113-0.391c0-0.203-0.065-0.317-0.149-0.491l-0.498-1.014c-0.126-0.259-0.18-0.252-0.456-0.252h-0.071V148.383z"/>
 </g>
 <g xmlns="http://www.w3.org/2000/svg">
  <path xmlns="http://www.w3.org/2000/svg" stroke="#000000" stroke-width="0.3" d="M5.86,80.625c0.246,0,0.36,0.096,0.36,0.365c0,0.271-0.114,0.366-0.36,0.366H4.457c-0.246,0-0.359-0.096-0.359-0.366c0-0.27,0.113-0.365,0.359-0.365H5.86z"/>
  <path xmlns="http://www.w3.org/2000/svg" stroke="#000000" stroke-width="0.3" d="M9.779,82.718h0.881c0.156,0,0.3,0.084,0.3,0.3s-0.144,0.3-0.3,0.3H8.298c-0.156,0-0.3-0.084-0.3-0.3s0.144-0.3,0.3-0.3H9.18v-3.467H8.298c-0.156,0-0.3-0.084-0.3-0.301c0-0.216,0.144-0.3,0.3-0.3h2.362c0.156,0,0.3,0.084,0.3,0.3c0,0.217-0.144,0.301-0.3,0.301H9.779V82.718z"/>
  <path xmlns="http://www.w3.org/2000/svg" stroke="#000000" stroke-width="0.3" d="M14.686,78.958c0-0.192,0.084-0.301,0.3-0.301c0.217,0,0.301,0.108,0.301,0.301v4.364h-0.792l-1.565-3.598v-0.006h-0.012v3.298c0,0.192-0.084,0.3-0.3,0.3c-0.216,0-0.3-0.107-0.3-0.3V78.65h0.791l1.565,3.641h-0.006h0.012L14.686,78.958z"/>
  <path xmlns="http://www.w3.org/2000/svg" stroke="#000000" stroke-width="0.3" d="M17.237,83.017c0,0.192-0.084,0.3-0.3,0.3s-0.3-0.107-0.3-0.3v-4.366h1.991c0.275,0,0.474,0.042,0.689,0.246c0.258,0.24,0.281,0.461,0.281,0.786v0.815c0,0.306-0.023,0.521-0.245,0.768c-0.234,0.264-0.48,0.288-0.804,0.288h-1.313L17.237,83.017L17.237,83.017z M17.237,80.954h1.331c0.354,0,0.432-0.09,0.432-0.432v-0.839c0-0.342-0.078-0.432-0.432-0.432h-1.331V80.954z"/>
  <path xmlns="http://www.w3.org/2000/svg" stroke="#000000" stroke-width="0.3" d="M21.929,83.316c-0.3,0-0.534-0.072-0.744-0.306c-0.197-0.223-0.228-0.438-0.228-0.714V78.95c0-0.191,0.084-0.3,0.3-0.3c0.216,0,0.3,0.108,0.3,0.3v3.347c0,0.336,0.102,0.42,0.372,0.42h1.02c0.27,0,0.371-0.084,0.371-0.42V78.95c0-0.191,0.084-0.3,0.3-0.3c0.216,0,0.3,0.108,0.3,0.3v3.347c0,0.275-0.029,0.491-0.228,0.714c-0.21,0.233-0.443,0.306-0.743,0.306H21.929z"/>
  <path xmlns="http://www.w3.org/2000/svg" stroke="#000000" stroke-width="0.3" d="M25.877,79.251v0.216c0,0.191-0.084,0.3-0.3,0.3c-0.216,0-0.3-0.108-0.3-0.3v-0.815h2.962v0.815c0,0.191-0.084,0.3-0.3,0.3s-0.3-0.108-0.3-0.3v-0.216h-0.581v3.766c0,0.192-0.084,0.3-0.3,0.3c-0.216,0-0.3-0.107-0.3-0.3v-3.766H25.877z"/>
 </g>
 <g xmlns="http://www.w3.org/2000/svg">
  <path xmlns="http://www.w3.org/2000/svg" stroke="#000000" stroke-width="0.3" d="M146.039,78.651h1.678c0.884,0,1.283,0.54,1.283,1.385c0,0.349-0.076,0.666-0.395,0.948c0.342,0.324,0.395,0.643,0.395,1.085c0,0.786-0.521,1.248-1.283,1.248h-1.678V78.651z M146.638,80.684h1.078c0.432,0,0.684-0.192,0.684-0.648c0-0.503-0.137-0.785-0.684-0.785h-1.078V80.684z M146.638,82.718h1.078c0.432,0,0.684-0.192,0.684-0.648c0-0.503-0.137-0.785-0.684-0.785h-1.078V82.718z"/>
  <path xmlns="http://www.w3.org/2000/svg" stroke="#000000" stroke-width="0.3" d="M152.14,83.017c0,0.192-0.084,0.3-0.301,0.3c-0.215,0-0.299-0.107-0.299-0.3v-1.919l-1.183-1.535v-0.612c0-0.191,0.084-0.3,0.3-0.3c0.217,0,0.301,0.108,0.301,0.3v0.408l0.881,1.146l0.881-1.146v-0.408c0-0.191,0.084-0.3,0.301-0.3c0.215,0,0.299,0.108,0.299,0.3v0.612l-1.18,1.535V83.017L152.14,83.017z"/>
  <path xmlns="http://www.w3.org/2000/svg" stroke="#000000" stroke-width="0.3" d="M155.277,83.017c0,0.192-0.084,0.3-0.299,0.3c-0.217,0-0.301-0.107-0.301-0.3v-4.366h1.992c0.274,0,0.473,0.042,0.688,0.246c0.259,0.24,0.281,0.461,0.281,0.786v0.815c0,0.306-0.022,0.521-0.246,0.768c-0.233,0.264-0.479,0.288-0.804,0.288h-1.313L155.277,83.017L155.277,83.017z M155.277,80.954h1.332c0.354,0,0.432-0.09,0.432-0.432v-0.839c0-0.342-0.078-0.432-0.432-0.432h-1.332V80.954z"/>
  <path xmlns="http://www.w3.org/2000/svg" stroke="#000000" stroke-width="0.3" d="M160.173,78.958c0.049-0.162,0.113-0.307,0.307-0.307c0.197,0,0.27,0.15,0.311,0.307l1.158,4.06c0.041,0.144-0.121,0.3-0.289,0.3c-0.186,0-0.281-0.156-0.322-0.3l-0.223-0.72h-1.277l-0.229,0.72c-0.041,0.144-0.137,0.3-0.322,0.3c-0.168,0-0.33-0.156-0.289-0.3L160.173,78.958z M160.486,80.072h-0.014l-0.467,1.625h0.94L160.486,80.072z"/>
  <path xmlns="http://www.w3.org/2000/svg" stroke="#000000" stroke-width="0.3" d="M166.07,82.141c0.119,0.156,0.209,0.294,0.209,0.498c0,0.45-0.342,0.678-0.754,0.678h-1.32c-0.229,0-0.426-0.042-0.604-0.191c-0.162-0.133-0.281-0.349-0.281-0.559c0-0.191,0.106-0.359,0.315-0.359c0.175,0,0.283,0.144,0.283,0.306c0,0.18,0.097,0.204,0.265,0.204h1.301c0.05,0,0.197,0.018,0.197-0.072c0-0.048-0.084-0.138-0.106-0.174l-2.058-2.646c-0.125-0.161-0.197-0.281-0.197-0.491c0-0.24,0.113-0.444,0.315-0.576c0.169-0.108,0.308-0.108,0.498-0.108h1.271c0.229,0,0.42,0.048,0.594,0.198c0.156,0.138,0.281,0.36,0.281,0.57c0,0.191-0.096,0.348-0.311,0.348c-0.18,0-0.289-0.114-0.289-0.282c0-0.204-0.102-0.233-0.287-0.233h-1.271c-0.065,0-0.203-0.019-0.203,0.084c0,0.054,0.064,0.126,0.09,0.161L166.07,82.141z"/>
  <path xmlns="http://www.w3.org/2000/svg" stroke="#000000" stroke-width="0.3" d="M170.39,82.141c0.119,0.156,0.209,0.294,0.209,0.498c0,0.45-0.342,0.678-0.754,0.678h-1.32c-0.229,0-0.426-0.042-0.605-0.191c-0.162-0.133-0.28-0.349-0.28-0.559c0-0.191,0.106-0.359,0.315-0.359c0.174,0,0.283,0.144,0.283,0.306c0,0.18,0.096,0.204,0.264,0.204h1.302c0.049,0,0.196,0.018,0.196-0.072c0-0.048-0.084-0.138-0.106-0.174l-2.058-2.646c-0.125-0.161-0.196-0.281-0.196-0.491c0-0.24,0.112-0.444,0.315-0.576c0.168-0.108,0.308-0.108,0.498-0.108h1.271c0.229,0,0.42,0.048,0.594,0.198c0.156,0.138,0.281,0.36,0.281,0.57c0,0.191-0.096,0.348-0.311,0.348c-0.181,0-0.289-0.114-0.289-0.282c0-0.204-0.103-0.233-0.287-0.233h-1.271c-0.066,0-0.203-0.019-0.203,0.084c0,0.054,0.064,0.126,0.09,0.161L170.39,82.141z"/>
 </g>
 <g xmlns="http://www.w3.org/2000/svg">
  <path xmlns="http://www.w3.org/2000/svg" stroke="#000000" stroke-width="0.3" d="M165.681,110.783v-0.959c0-0.191,0.084-0.301,0.299-0.301c0.217,0,0.301,0.108,0.301,0.301v0.947c0,0.078-0.006,0.162-0.035,0.234l-1.146,2.92c-0.062,0.149-0.113,0.264-0.3,0.264c-0.188,0-0.239-0.113-0.301-0.264l-1.145-2.92c-0.031-0.072-0.037-0.156-0.037-0.234v-0.947c0-0.191,0.084-0.301,0.301-0.301c0.215,0,0.299,0.108,0.299,0.301v0.959l0.883,2.291L165.681,110.783z"/>
  <path xmlns="http://www.w3.org/2000/svg" stroke="#000000" stroke-width="0.3" d="M168.695,111.533c-0.121,0-0.324-0.023-0.324,0.162c0,0.097,0.072,0.131,0.156,0.168l1.438,0.653c0.373,0.167,0.564,0.401,0.564,0.815c0,0.581-0.396,0.856-0.947,0.856h-0.887c-0.301,0-0.504-0.012-0.721-0.18c-0.107-0.084-0.264-0.191-0.264-0.336c0-0.162,0.139-0.288,0.301-0.288c0.09,0,0.154,0.03,0.221,0.103c0.102,0.113,0.281,0.125,0.463,0.125h0.779c0.203,0,0.479,0.02,0.479-0.316c0-0.139-0.168-0.229-0.299-0.288l-1.355-0.617c-0.317-0.146-0.504-0.33-0.504-0.701c0-0.457,0.359-0.731,0.791-0.731h0.984c0.318,0,0.449,0.018,0.666,0.197c0.107,0.09,0.227,0.161,0.227,0.323s-0.137,0.288-0.293,0.288c-0.106,0-0.174-0.042-0.246-0.12c-0.096-0.102-0.196-0.113-0.354-0.113H168.695z"/>
 </g>
 <g xmlns="http://www.w3.org/2000/svg">
  <path xmlns="http://www.w3.org/2000/svg" stroke="#000000" stroke-width="0.3" d="M157.041,143.783v-0.959c0-0.191,0.084-0.301,0.299-0.301c0.218,0,0.302,0.108,0.302,0.301v0.947c0,0.078-0.007,0.162-0.035,0.234l-1.146,2.92c-0.062,0.149-0.113,0.264-0.299,0.264c-0.188,0-0.24-0.113-0.302-0.264l-1.146-2.92c-0.03-0.072-0.036-0.156-0.036-0.234v-0.947c0-0.191,0.084-0.301,0.301-0.301c0.215,0,0.299,0.108,0.299,0.301v0.959l0.884,2.291L157.041,143.783z"/>
  <path xmlns="http://www.w3.org/2000/svg" stroke="#000000" stroke-width="0.3" d="M159.07,145.031c0-0.385,0.078-0.516,0.365-0.75c0.283-0.233,0.414-0.323,0.816-0.323h0.455c0.401,0,0.533,0.09,0.815,0.323c0.287,0.234,0.365,0.365,0.365,0.75v1.085c0,0.378-0.097,0.521-0.396,0.773c-0.3,0.252-0.418,0.3-0.785,0.3h-0.455c-0.365,0-0.486-0.048-0.785-0.3c-0.301-0.252-0.396-0.396-0.396-0.773V145.031z M159.646,146.116c0,0.12,0.041,0.198,0.209,0.343c0.127,0.107,0.217,0.154,0.396,0.154h0.455c0.18,0,0.27-0.047,0.396-0.154c0.168-0.145,0.209-0.223,0.209-0.343v-1.085c0-0.121-0.041-0.198-0.209-0.342c-0.127-0.107-0.218-0.156-0.396-0.156h-0.455c-0.181,0-0.271,0.049-0.396,0.156c-0.168,0.144-0.209,0.221-0.209,0.342V146.116z"/>
  <path xmlns="http://www.w3.org/2000/svg" stroke="#000000" stroke-width="0.3" d="M166.208,146.763c0,0.132,0.022,0.426-0.283,0.426c-0.246,0-0.287-0.204-0.287-0.402v-0.096l-0.469,0.308c-0.187,0.118-0.342,0.19-0.496,0.19h-0.426c-0.162,0-0.343-0.048-0.535-0.21c-0.258-0.222-0.252-0.468-0.265-0.779l-0.059-1.812c-0.009-0.209,0.022-0.432,0.286-0.432c0.246,0,0.275,0.21,0.281,0.396l0.062,1.769c0.006,0.133,0.012,0.288,0.062,0.372c0.047,0.084,0.196,0.119,0.336,0.119h0.19c0.065,0,0.125-0.018,0.181-0.054l0.846-0.534v-1.672c0-0.198,0.041-0.396,0.287-0.396s0.289,0.197,0.289,0.396V146.763L166.208,146.763z"/>
  <path xmlns="http://www.w3.org/2000/svg" stroke="#000000" stroke-width="0.3" d="M168.867,146.103c0,0.324-0.012,0.51,0.385,0.51h0.293c0.234,0,0.343-0.018,0.402-0.252c0.035-0.137,0.143-0.232,0.287-0.232c0.162,0,0.295,0.126,0.295,0.288c0,0.161-0.104,0.364-0.199,0.479c-0.209,0.252-0.483,0.294-0.791,0.294h-0.293c-0.289,0-0.541-0.065-0.744-0.287c-0.223-0.246-0.211-0.492-0.211-0.805v-1.564h-0.186c-0.168,0-0.395-0.035-0.395-0.288c0-0.245,0.203-0.287,0.395-0.287h0.186v-0.589c0-0.196,0.043-0.396,0.289-0.396s0.287,0.198,0.287,0.396v0.589h0.965c0.193,0,0.396,0.042,0.396,0.287c0,0.253-0.229,0.288-0.396,0.288h-0.965V146.103L168.867,146.103z"/>
 </g>
 <g xmlns="http://www.w3.org/2000/svg">
  <path xmlns="http://www.w3.org/2000/svg" stroke="#000000" stroke-width="0.3" d="M4.859,112.459c0-0.192,0.084-0.301,0.3-0.301c0.216,0,0.3,0.107,0.3,0.301v0.894H6.34c0.156,0,0.3,0.084,0.3,0.3s-0.144,0.3-0.3,0.3H5.459v0.882c0,0.191-0.084,0.301-0.3,0.301c-0.216,0-0.3-0.108-0.3-0.301v-0.882H3.978c-0.156,0-0.3-0.084-0.3-0.3s0.144-0.3,0.3-0.3H4.86L4.859,112.459L4.859,112.459z"/>
  <path xmlns="http://www.w3.org/2000/svg" stroke="#000000" stroke-width="0.3" d="M9.779,115.385h0.881c0.156,0,0.3,0.084,0.3,0.299c0,0.217-0.144,0.301-0.3,0.301H8.298c-0.156,0-0.3-0.084-0.3-0.301c0-0.215,0.144-0.299,0.3-0.299H9.18v-3.467H8.298c-0.156,0-0.3-0.084-0.3-0.301c0-0.216,0.144-0.3,0.3-0.3h2.362c0.156,0,0.3,0.084,0.3,0.3c0,0.217-0.144,0.301-0.3,0.301H9.779V115.385z"/>
  <path xmlns="http://www.w3.org/2000/svg" stroke="#000000" stroke-width="0.3" d="M14.686,111.626c0-0.192,0.084-0.302,0.3-0.302c0.217,0,0.301,0.108,0.301,0.302v4.364h-0.792l-1.565-3.598v-0.007h-0.012v3.298c0,0.192-0.084,0.301-0.3,0.301c-0.216,0-0.3-0.107-0.3-0.301v-4.365h0.791l1.565,3.642h-0.006h0.012L14.686,111.626z"/>
  <path xmlns="http://www.w3.org/2000/svg" stroke="#000000" stroke-width="0.3" d="M17.237,115.683c0,0.192-0.084,0.301-0.3,0.301s-0.3-0.107-0.3-0.301v-4.365h1.991c0.275,0,0.474,0.042,0.689,0.246c0.258,0.24,0.281,0.461,0.281,0.785v0.816c0,0.305-0.023,0.521-0.245,0.768c-0.234,0.264-0.48,0.287-0.804,0.287h-1.313L17.237,115.683L17.237,115.683z M17.237,113.621h1.331c0.354,0,0.432-0.09,0.432-0.432v-0.84c0-0.342-0.078-0.432-0.432-0.432h-1.331V113.621z"/>
  <path xmlns="http://www.w3.org/2000/svg" stroke="#000000" stroke-width="0.3" d="M21.929,115.984c-0.3,0-0.534-0.072-0.744-0.307c-0.197-0.223-0.228-0.438-0.228-0.713v-3.348c0-0.191,0.084-0.3,0.3-0.3c0.216,0,0.3,0.107,0.3,0.3v3.348c0,0.336,0.102,0.42,0.372,0.42h1.02c0.27,0,0.371-0.084,0.371-0.42v-3.348c0-0.191,0.084-0.3,0.3-0.3c0.216,0,0.3,0.107,0.3,0.3v3.348c0,0.274-0.029,0.49-0.228,0.713c-0.21,0.233-0.443,0.307-0.743,0.307H21.929z"/>
  <path xmlns="http://www.w3.org/2000/svg" stroke="#000000" stroke-width="0.3" d="M25.877,111.918v0.216c0,0.191-0.084,0.3-0.3,0.3c-0.216,0-0.3-0.107-0.3-0.3v-0.815h2.962v0.815c0,0.191-0.084,0.3-0.3,0.3s-0.3-0.107-0.3-0.3v-0.216h-0.581v3.766c0,0.192-0.084,0.301-0.3,0.301c-0.216,0-0.3-0.107-0.3-0.301v-3.766H25.877z"/>
 </g>
 <path xmlns="http://www.w3.org/2000/svg" fill="none" stroke="#000000" stroke-width="2" d="M101.15,32.15c0,7.732-6.268,14-14,14c-7.732,0-14-6.268-14-14"/>
 <line xmlns="http://www.w3.org/2000/svg" fill="none" stroke="#000000" stroke-linejoin="round" stroke-linecap="round" y1="52.15" stroke-width="2.4" x1="0.325" y2="52.15" x2="32.15"/>
 <line xmlns="http://www.w3.org/2000/svg" fill="none" stroke="#000000" stroke-linejoin="round" stroke-linecap="round" y1="87.65" stroke-width="2.4" x1="0.325" y2="87.65" x2="67.228"/>
 <line xmlns="http://www.w3.org/2000/svg" fill="none" stroke="#000000" stroke-linejoin="round" stroke-linecap="round" y1="120.15" stroke-width="2.4" x1="0.325" y2="120.15" x2="67.228"/>
 <line xmlns="http://www.w3.org/2000/svg" fill="none" stroke="#000000" stroke-linejoin="round" stroke-linecap="round" y1="152.236" stroke-width="2.4" x1="0.325" y2="152.236" x2="32.15"/>
 <line xmlns="http://www.w3.org/2000/svg" fill="none" stroke="#000000" stroke-linejoin="round" stroke-linecap="round" y1="52.15" stroke-width="2.4" x1="142.15" y2="52.15" x2="174.019"/>
 <line xmlns="http://www.w3.org/2000/svg" fill="none" stroke="#000000" stroke-linejoin="round" stroke-linecap="round" y1="87.65" stroke-width="2.4" x1="142.15" y2="87.65" x2="174.019"/>
 <line xmlns="http://www.w3.org/2000/svg" fill="none" stroke="#000000" stroke-linejoin="round" stroke-linecap="round" y1="120.15" stroke-width="2.4" x1="142.15" y2="120.15" x2="174.019"/>
 <line xmlns="http://www.w3.org/2000/svg" fill="none" stroke="#000000" stroke-linejoin="round" stroke-linecap="round" y1="152.236" stroke-width="2.4" x1="129.914" y2="152.236" x2="174.019"/>
 <rect xmlns="http://www.w3.org/2000/svg" width="10" x="0.159" y="51.15" height="2" id="connector0pin"/>
 <rect xmlns="http://www.w3.org/2000/svg" width="10" x="0.159" y="86.65" height="2" id="connector1pin"/>
 <rect xmlns="http://www.w3.org/2000/svg" width="10" x="0.159" y="119.15" height="2" id="connector2pin"/>
 <rect xmlns="http://www.w3.org/2000/svg" width="10" x="0.159" y="151.236" height="2" id="connector3pin"/>
 <rect xmlns="http://www.w3.org/2000/svg" width="10" x="164.12" y="151.15" height="2" id="connector4pin"/>
 <rect xmlns="http://www.w3.org/2000/svg" width="10" x="164.019" y="119.15" height="2" id="connector5pin"/>
 <rect xmlns="http://www.w3.org/2000/svg" width="10" x="164.119" y="86.65" height="2" id="connector6pin"/>
 <rect xmlns="http://www.w3.org/2000/svg" width="10" x="164.123" y="51.15" height="2" id="connector7pin"/>
</svg>
