<?xml version='1.0' encoding='utf-8'?>
<!DOCTYPE svg PUBLIC '-//W3C//DTD SVG 1.1//EN' 'http://www.w3.org/Graphics/SVG/1.1/DTD/svg11.dtd'>
<!-- Generator: Adobe Illustrator 14.0.0, SVG Export Plug-In . SVG Version: 6.00 Build 43363)  -->
<svg xmlns="http://www.w3.org/2000/svg" width="8.26771in" xml:space="preserve" xmlns:xml="http://www.w3.org/XML/1998/namespace" x="0px" version="1.1" y="0px" height="11.6929in" viewBox="0 0 595.275 841.891" enable-background="new 0 0 595.275 841.891">
 <g xmlns="http://www.w3.org/2000/svg" id="Layer_2">
  <rect xmlns="http://www.w3.org/2000/svg" width="2.16" x="272.758" y="436.7" fill="#8C8C8C" height="3.125" id="connector0pin"/>
  <rect xmlns="http://www.w3.org/2000/svg" width="2.16" x="279.958" y="436.7" fill="#8C8C8C" height="3.125" id="connector1pin"/>
  <rect xmlns="http://www.w3.org/2000/svg" width="2.16" x="287.157" y="436.7" fill="#8C8C8C" height="3.125" id="connector2pin"/>
  <rect xmlns="http://www.w3.org/2000/svg" width="2.159" x="294.358" y="436.7" fill="#8C8C8C" height="3.125" id="connector3pin"/>
  <rect xmlns="http://www.w3.org/2000/svg" width="2.159" x="294.358" y="416.066" fill="#8C8C8C" height="3.125" id="connector4pin"/>
  <rect xmlns="http://www.w3.org/2000/svg" width="2.16" x="287.157" y="416.066" fill="#8C8C8C" height="3.125" id="connector5pin"/>
  <rect xmlns="http://www.w3.org/2000/svg" width="2.16" x="279.958" y="416.066" fill="#8C8C8C" height="3.125" id="connector6pin"/>
  <rect xmlns="http://www.w3.org/2000/svg" width="2.16" x="272.758" y="416.066" fill="#8C8C8C" height="3.125" id="connector7pin"/>
  <rect xmlns="http://www.w3.org/2000/svg" width="2.16" x="272.758" y="437.665" fill="#8C8C8C" height="2.16" id="connector0terminal"/>
  <rect xmlns="http://www.w3.org/2000/svg" width="2.16" x="279.958" y="437.665" fill="#8C8C8C" height="2.16" id="connector1terminal"/>
  <rect xmlns="http://www.w3.org/2000/svg" width="2.16" x="287.157" y="437.665" fill="#8C8C8C" height="2.16" id="connector2terminal"/>
  <rect xmlns="http://www.w3.org/2000/svg" width="2.159" x="294.358" y="437.665" fill="#8C8C8C" height="2.16" id="connector3terminal"/>
  <rect xmlns="http://www.w3.org/2000/svg" width="2.159" x="294.358" y="416.066" fill="#8C8C8C" height="2.16" id="connector4terminal"/>
  <rect xmlns="http://www.w3.org/2000/svg" width="2.16" x="287.157" y="416.066" fill="#8C8C8C" height="2.16" id="connector5terminal"/>
  <rect xmlns="http://www.w3.org/2000/svg" width="2.16" x="279.958" y="416.066" fill="#8C8C8C" height="2.16" id="connector6terminal"/>
  <rect xmlns="http://www.w3.org/2000/svg" width="2.16" x="272.758" y="416.066" fill="#8C8C8C" height="2.16" id="connector7terminal"/>
  <rect xmlns="http://www.w3.org/2000/svg" width="2.16" x="272.758" y="435.016" fill="#8C8C8C" height="4.81" id="rect20_1_"/>
  <rect xmlns="http://www.w3.org/2000/svg" width="2.16" x="279.958" y="435.016" fill="#8C8C8C" height="4.81" id="rect22_1_"/>
  <rect xmlns="http://www.w3.org/2000/svg" width="2.16" x="287.157" y="435.016" fill="#8C8C8C" height="4.81" id="rect24_1_"/>
  <rect xmlns="http://www.w3.org/2000/svg" width="2.159" x="294.358" y="435.016" fill="#8C8C8C" height="4.81" id="rect26_1_"/>
  <rect xmlns="http://www.w3.org/2000/svg" width="2.16" x="272.758" y="416.066" fill="#8C8C8C" height="4.81" id="rect28_1_"/>
  <rect xmlns="http://www.w3.org/2000/svg" width="2.16" x="279.958" y="416.066" fill="#8C8C8C" height="4.81" id="rect30_1_"/>
  <rect xmlns="http://www.w3.org/2000/svg" width="2.16" x="287.157" y="416.066" fill="#8C8C8C" height="4.81" id="rect32_1_"/>
  <rect xmlns="http://www.w3.org/2000/svg" width="2.159" x="294.358" y="416.066" fill="#8C8C8C" height="4.81" id="rect34_1_"/>
  <polygon xmlns="http://www.w3.org/2000/svg" fill="#3D3D3D" points="270.238,418.226 299.038,418.226 298.497,424.345 270.238,424.345 " id="polygon36_1_"/>
  <polygon xmlns="http://www.w3.org/2000/svg" points="270.238,431.545 298.497,431.545 299.038,437.665 270.238,437.665 " id="polygon38_1_"/>
  <polygon xmlns="http://www.w3.org/2000/svg" fill="#8C8C8C" points="276.358,419.191 276.358,418.412 274.918,417.75 272.758,417.75 272.758,419.191 " id="polygon40_1_"/>
  <polygon xmlns="http://www.w3.org/2000/svg" fill="#8C8C8C" points="283.558,419.191 283.558,418.412 282.118,417.75 279.958,417.75 278.518,418.412 278.518,419.191 " id="polygon42_1_"/>
  <polygon xmlns="http://www.w3.org/2000/svg" fill="#8C8C8C" points="296.518,419.191 296.518,417.75 294.358,417.75 292.918,418.412 292.918,419.191 " id="polygon44_1_"/>
  <polygon xmlns="http://www.w3.org/2000/svg" fill="#8C8C8C" points="290.758,419.191 290.758,418.412 289.317,417.75 287.157,417.75 285.718,418.412 285.718,419.191 " id="polygon46_1_"/>
  <polygon xmlns="http://www.w3.org/2000/svg" fill="#8C8C8C" points="272.758,436.7 272.758,438.141 274.918,438.141 276.358,437.478 276.358,436.7 " id="polygon48_1_"/>
  <polygon xmlns="http://www.w3.org/2000/svg" fill="#8C8C8C" points="292.918,436.7 292.918,437.478 294.358,438.141 296.518,438.141 296.518,436.7 " id="polygon50_1_"/>
  <polygon xmlns="http://www.w3.org/2000/svg" fill="#8C8C8C" points="278.518,436.7 278.518,437.478 279.958,438.141 282.118,438.141 283.558,437.478 283.558,436.7 " id="polygon52_1_"/>
  <polygon xmlns="http://www.w3.org/2000/svg" fill="#8C8C8C" points="285.718,436.7 285.718,437.478 287.157,438.141 289.317,438.141 290.758,437.478 290.758,436.7 " id="polygon54_1_"/>
  <polygon xmlns="http://www.w3.org/2000/svg" fill="#141414" points="299.038,418.226 298.497,419.996 297.491,419.996 297.491,435.887 298.497,435.894 299.038,437.665 " id="polygon56_1_"/>
  <polygon xmlns="http://www.w3.org/2000/svg" fill="#1F1F1F" points="270.238,418.226 270.778,419.996 270.778,424.345 273.838,424.345 273.838,431.545 270.778,431.545 270.778,435.894 270.238,437.665 " id="polygon58_1_"/>
  <polygon xmlns="http://www.w3.org/2000/svg" fill="#1C1C1C" points="273.838,424.345 270.778,424.317 270.641,425.843 270.641,427.938 273.838,427.938 " id="polygon60_1_"/>
  <polygon xmlns="http://www.w3.org/2000/svg" fill="#383838" points="270.778,431.581 273.838,431.581 273.838,427.938 270.641,427.938 270.641,430.048 " id="polygon62_1_"/>
  <path xmlns="http://www.w3.org/2000/svg" fill="#303030" id="path64_1_" d="M270.778,419.996v4.313c1.713,0.323,3.017,1.821,3.017,3.628c0,1.808-1.296,3.312-3.017,3.637v4.312h27.719v-15.891H270.778z"/>
  <path xmlns="http://www.w3.org/2000/svg" fill="#262626" id="path66_1_" d="M270.641,425.843v4.197c1.058-0.122,1.886-1.008,1.886-2.103C272.527,426.844,271.707,425.965,270.641,425.843z"/>
  <circle xmlns="http://www.w3.org/2000/svg" fill="#212121" cx="274.918" cy="432.964" id="circle68_1_" r="1.483"/>
 </g>
 <g xmlns="http://www.w3.org/2000/svg" id="Layer_1">
  <g xmlns="http://www.w3.org/2000/svg">
   <g xmlns="http://www.w3.org/2000/svg" enable-background="new    ">
    <path xmlns="http://www.w3.org/2000/svg" fill="#E6E6E6" d="M276.999,422.836c0.06,0,0.115,0.021,0.167,0.062s0.077,0.111,0.077,0.207v0.096v2.854h1.11c0.04,0,0.102,0,0.185-0.002c0.084-0.002,0.146-0.002,0.186-0.002l0.185,0.004c0.063,0.004,0.116,0.029,0.157,0.078c0.042,0.049,0.062,0.104,0.062,0.162c0,0.031-0.008,0.066-0.024,0.105c-0.026,0.061-0.065,0.098-0.115,0.113c-0.05,0.014-0.118,0.021-0.205,0.021h-2.021v-3.279c0-0.014,0-0.035-0.002-0.068c-0.002-0.031-0.002-0.055-0.002-0.072c0-0.061,0.009-0.109,0.027-0.15c0.018-0.039,0.043-0.068,0.072-0.084c0.029-0.018,0.056-0.029,0.078-0.035C276.958,422.84,276.979,422.836,276.999,422.836z"/>
    <path xmlns="http://www.w3.org/2000/svg" fill="#E6E6E6" d="M280.429,426.535c-0.064,0-0.121-0.021-0.17-0.064c-0.051-0.043-0.076-0.117-0.076-0.221c0-0.016,0.002-0.041,0.003-0.072c0.002-0.031,0.003-0.055,0.003-0.066v-3.275h0.43c0.007,0,0.022-0.002,0.047-0.002c0.025-0.002,0.045-0.004,0.059-0.004c0.036,0,0.062,0.008,0.077,0.021c0.015,0.012,0.029,0.033,0.042,0.059c0.01,0.018,0.029,0.043,0.056,0.08s0.045,0.064,0.055,0.08l0.42,0.596l0.535-0.77l0.05-0.057l0.18-0.004h0.416v3.275c0,0.016,0,0.039,0.002,0.068c0.002,0.031,0.002,0.053,0.002,0.066c0,0.08-0.018,0.143-0.052,0.189c-0.035,0.047-0.068,0.074-0.101,0.086c-0.031,0.01-0.062,0.014-0.092,0.014c-0.051,0-0.098-0.016-0.143-0.047s-0.074-0.072-0.088-0.123c-0.006-0.023-0.01-0.082-0.01-0.18V423.5h-0.005c-0.011,0.031-0.077,0.127-0.2,0.291c-0.123,0.162-0.205,0.281-0.245,0.355c-0.01,0.016-0.015,0.068-0.015,0.154c0,0.066-0.024,0.119-0.072,0.16c-0.049,0.039-0.1,0.061-0.152,0.061c-0.064,0-0.121-0.02-0.173-0.059c-0.052-0.037-0.077-0.105-0.077-0.203c0-0.062-0.004-0.1-0.011-0.109c-0.043-0.076-0.126-0.195-0.25-0.357c-0.123-0.162-0.19-0.26-0.2-0.293h-0.005v2.686v0.09c0,0.076-0.022,0.139-0.069,0.188S280.495,426.535,280.429,426.535z"/>
   </g>
   <g xmlns="http://www.w3.org/2000/svg" enable-background="new    ">
    <path xmlns="http://www.w3.org/2000/svg" fill="#E6E6E6" d="M278.354,430.451c0.069,0,0.128-0.012,0.173-0.035s0.074-0.059,0.09-0.105c0.015-0.047,0.023-0.084,0.027-0.109c0.003-0.027,0.005-0.068,0.005-0.125v-0.76h-1.511h-0.104c-0.1,0-0.17-0.027-0.21-0.08c-0.04-0.055-0.061-0.107-0.061-0.16c0-0.168,0.124-0.25,0.371-0.25c0.029,0,0.072,0.002,0.127,0.004c0.055,0.004,0.094,0.006,0.117,0.006h0.905c0.03,0,0.076-0.002,0.138-0.006c0.062-0.002,0.109-0.004,0.143-0.004c0.163,0,0.3,0.041,0.41,0.127c0.109,0.086,0.164,0.23,0.164,0.438c0,0.029-0.001,0.074-0.004,0.133c-0.004,0.059-0.006,0.1-0.006,0.127v0.416c0,0.039,0,0.076,0,0.111s-0.002,0.07-0.004,0.104c-0.004,0.033-0.009,0.064-0.016,0.094c-0.007,0.031-0.017,0.062-0.029,0.098c-0.014,0.035-0.032,0.072-0.056,0.107l-0.035,0.045c-0.023,0.027-0.034,0.047-0.034,0.061c0,0.004,0.02,0.035,0.062,0.096c0.041,0.059,0.072,0.127,0.092,0.205c0.014,0.066,0.02,0.193,0.02,0.379v0.531c0,0.219-0.035,0.373-0.104,0.459c-0.047,0.061-0.107,0.104-0.183,0.131c-0.074,0.025-0.135,0.041-0.178,0.045c-0.043,0.002-0.118,0.004-0.225,0.004h-1.13c-0.021,0-0.053,0.002-0.098,0.004c-0.045,0-0.079,0.002-0.103,0.002c-0.23,0-0.346-0.082-0.346-0.246c0-0.057,0.021-0.109,0.062-0.162c0.043-0.051,0.109-0.078,0.203-0.078h0.096h1.524v-0.76c0-0.047,0-0.08,0-0.1s-0.005-0.051-0.015-0.094c-0.01-0.045-0.024-0.076-0.043-0.096c-0.018-0.02-0.049-0.039-0.09-0.059c-0.042-0.018-0.091-0.027-0.147-0.027c-0.017,0-0.04,0.002-0.067,0.004c-0.029,0.002-0.049,0.002-0.062,0.002h-0.65c-0.09,0-0.143-0.002-0.16-0.006c-0.053-0.016-0.096-0.047-0.13-0.09c-0.033-0.043-0.05-0.092-0.05-0.145s0.017-0.102,0.05-0.145c0.034-0.043,0.077-0.074,0.13-0.09c0.018-0.004,0.07-0.006,0.16-0.006h0.65c0.014,0,0.033,0.002,0.062,0.002C278.313,430.449,278.337,430.451,278.354,430.451z"/>
    <path xmlns="http://www.w3.org/2000/svg" fill="#E6E6E6" d="M280.183,430.981c0-0.197,0.055-0.334,0.163-0.414s0.212-0.121,0.312-0.121v-1.045c0-0.02-0.002-0.057-0.005-0.109c-0.004-0.053-0.005-0.094-0.005-0.121c0-0.143,0.027-0.234,0.082-0.273c0.056-0.041,0.138-0.061,0.247-0.061h0.746c0.023,0,0.047,0,0.072,0s0.05,0.002,0.074,0.004c0.025,0.004,0.049,0.01,0.07,0.016c0.021,0.008,0.042,0.018,0.061,0.033c0.018,0.014,0.033,0.033,0.047,0.057s0.024,0.053,0.033,0.09c0.008,0.037,0.012,0.078,0.012,0.125c0,0.031-0.002,0.072-0.004,0.123c-0.004,0.051-0.006,0.088-0.006,0.107v1.055c0.107,0,0.213,0.041,0.318,0.123c0.104,0.082,0.156,0.215,0.156,0.396c0,0.021,0,0.051-0.002,0.088c-0.002,0.039-0.002,0.066-0.002,0.082v0.596c0,0.023,0,0.062,0.002,0.117s0.002,0.098,0.002,0.129c0,0.109-0.018,0.203-0.052,0.281c-0.035,0.078-0.079,0.137-0.133,0.172c-0.054,0.037-0.103,0.064-0.147,0.08c-0.045,0.018-0.089,0.025-0.133,0.025c-0.09,0.004-0.225,0.006-0.404,0.006l-0.811-0.006c-0.106,0-0.182-0.002-0.227-0.004c-0.046-0.004-0.105-0.02-0.181-0.049c-0.075-0.027-0.136-0.072-0.183-0.131c-0.07-0.092-0.105-0.219-0.105-0.387c0-0.02,0.002-0.051,0.003-0.092c0.002-0.041,0.003-0.072,0.003-0.092v-0.631c0-0.016-0.001-0.045-0.003-0.084C280.185,431.026,280.183,430.998,280.183,430.981z M282.073,430.926h-1.405v1.129h1.405V430.926z M281.603,429.317h-0.465v1.129h0.465V429.317z"/>
    <path xmlns="http://www.w3.org/2000/svg" fill="#E6E6E6" d="M285.669,430.846c0.066,0,0.121,0.008,0.164,0.021c0.044,0.016,0.074,0.037,0.093,0.062c0.019,0.027,0.032,0.059,0.042,0.094c0.011,0.035,0.015,0.072,0.014,0.111c-0.002,0.041-0.003,0.08-0.003,0.121v0.891c0.003,0.029,0.004,0.062,0.003,0.096c-0.002,0.035-0.006,0.068-0.01,0.098c-0.006,0.031-0.017,0.061-0.033,0.088c-0.017,0.029-0.04,0.053-0.07,0.072c-0.037,0.023-0.106,0.035-0.209,0.035h-1.695c-0.098,0-0.157-0.002-0.18-0.01c-0.117-0.037-0.176-0.123-0.176-0.26c0-0.018,0.001-0.039,0.002-0.064c0.002-0.027,0.003-0.047,0.003-0.061v-2.961c0-0.129,0.017-0.215,0.05-0.254c0.051-0.061,0.139-0.09,0.266-0.09c0.043,0,0.086-0.002,0.13-0.002c0.043-0.002,0.087,0.006,0.132,0.027c0.045,0.02,0.08,0.049,0.104,0.09c0.023,0.037,0.035,0.076,0.035,0.119c0,0.064-0.023,0.119-0.068,0.168s-0.101,0.074-0.168,0.078v1.529H285.669z M285.499,431.326h-1.406v0.729h1.406V431.326z"/>
    <path xmlns="http://www.w3.org/2000/svg" fill="#E6E6E6" d="M287.278,432.535c-0.063,0-0.12-0.021-0.17-0.064c-0.051-0.043-0.075-0.119-0.075-0.23c0-0.016,0.001-0.041,0.003-0.072s0.002-0.055,0.002-0.066v-3.266h0.465c0.007,0,0.023-0.002,0.051-0.006c0.026-0.002,0.047-0.004,0.06-0.004c0.026,0,0.045,0.004,0.056,0.014l0.104,0.227l0.86,1.955c0.02,0.049,0.048,0.119,0.084,0.209c0.037,0.09,0.072,0.172,0.105,0.248c0.033,0.074,0.066,0.143,0.1,0.201v-2.51c0-0.086,0.004-0.141,0.01-0.164c0.034-0.113,0.112-0.17,0.236-0.17c0.057,0,0.11,0.021,0.162,0.062c0.051,0.041,0.077,0.113,0.077,0.217c0,0.018-0.001,0.043-0.003,0.078c-0.001,0.035-0.002,0.061-0.002,0.078v3.264h-0.465c-0.007,0-0.023,0.002-0.051,0.006c-0.025,0.002-0.046,0.004-0.06,0.004c-0.04,0-0.066-0.02-0.079-0.059c-0.004-0.008-0.006-0.012-0.006-0.016c-0.004-0.006-0.153-0.348-0.449-1.02c-0.297-0.674-0.449-1.02-0.455-1.035l-0.201-0.461c-0.066-0.143-0.104-0.23-0.114-0.264h-0.005v2.51c0,0.082-0.004,0.137-0.01,0.16c-0.014,0.053-0.042,0.096-0.086,0.127C287.38,432.52,287.331,432.535,287.278,432.535z"/>
    <path xmlns="http://www.w3.org/2000/svg" fill="#E6E6E6" d="M290.464,430.795c0-0.146,0.025-0.242,0.074-0.289c0.051-0.047,0.141-0.07,0.271-0.07c0.033,0,0.081,0.002,0.143,0.006c0.062,0.002,0.107,0.004,0.138,0.004h1.314c0.014,0,0.037,0,0.07-0.002s0.057-0.002,0.07-0.002c0.116,0,0.193,0.027,0.229,0.084s0.056,0.145,0.056,0.266c0,0.057-0.003,0.102-0.008,0.135c-0.006,0.033-0.02,0.068-0.045,0.105c-0.025,0.035-0.061,0.062-0.107,0.08c-0.027,0.01-0.087,0.014-0.18,0.014h-1.676c-0.106,0-0.174-0.004-0.199-0.014C290.514,431.067,290.464,430.963,290.464,430.795z"/>
    <path xmlns="http://www.w3.org/2000/svg" fill="#E6E6E6" d="M293.888,432.301c0-0.062,0.023-0.121,0.068-0.172c0.045-0.053,0.119-0.078,0.223-0.078c0.016,0,0.041,0,0.074,0.002s0.057,0.002,0.07,0.002h0.51v-2.738h-0.535c-0.013,0-0.033,0-0.062,0.002c-0.027,0.002-0.049,0.002-0.062,0.002c-0.109,0-0.185-0.027-0.225-0.082s-0.061-0.111-0.061-0.168c0-0.062,0.023-0.119,0.07-0.17c0.047-0.049,0.129-0.074,0.246-0.074c0.025,0,0.062,0.002,0.109,0.004c0.047,0.004,0.08,0.006,0.1,0.006h0.9v3.219h0.46v-0.869c0-0.104,0.009-0.174,0.024-0.209c0.044-0.084,0.115-0.125,0.215-0.125c0.164,0,0.246,0.102,0.246,0.305c0,0.02-0.002,0.047-0.003,0.082s-0.003,0.061-0.003,0.078v0.805c0.004,0.043,0.004,0.09,0,0.139c-0.003,0.051-0.01,0.098-0.021,0.139s-0.043,0.076-0.09,0.102c-0.049,0.027-0.113,0.041-0.193,0.041c-0.014,0-0.037-0.002-0.07-0.002c-0.033-0.002-0.057-0.004-0.069-0.004h-1.58c-0.157,0-0.259-0.037-0.306-0.109C293.899,432.389,293.888,432.348,293.888,432.301z"/>
   </g>
  </g>
 </g>
</svg>
